<svg xmlns="http://www.w3.org/2000/svg" xmlns:xlink="http://www.w3.org/1999/xlink" width="64" zoomAndPan="magnify" viewBox="0 0 48 48" height="64" preserveAspectRatio="xMidYMid meet" version="1.0"><defs><clipPath id="6c8295f908"><path d="M 2 1.339844 L 45.972656 1.339844 L 45.972656 45.421875 L 2 45.421875 Z M 2 1.339844 " clip-rule="nonzero"/></clipPath></defs><g clip-path="url(#6c8295f908)"><path fill="#ffffff" d="M 2.957031 16.113281 C 3.417969 16.113281 3.789062 16.484375 3.789062 16.945312 L 3.789062 42.496094 L 17.929688 28.355469 C 18.253906 28.03125 18.78125 28.03125 19.105469 28.355469 C 19.429688 28.683594 19.429688 29.210938 19.105469 29.535156 L 3.546875 45.09375 C 3.308594 45.332031 2.949219 45.402344 2.636719 45.273438 C 2.328125 45.144531 2.125 44.84375 2.125 44.503906 L 2.125 16.945312 C 2.125 16.484375 2.496094 16.113281 2.957031 16.113281 Z M 45.039062 1.59375 C 45.496094 1.59375 45.871094 1.964844 45.871094 2.425781 L 45.871094 31.464844 C 45.871094 31.800781 45.667969 32.105469 45.355469 32.234375 C 45.042969 32.363281 44.6875 32.292969 44.449219 32.054688 L 29.929688 17.535156 C 29.605469 17.207031 29.605469 16.679688 29.929688 16.355469 C 30.253906 16.03125 30.78125 16.03125 31.105469 16.355469 L 44.203125 29.453125 L 44.203125 2.425781 C 44.203125 1.964844 44.578125 1.59375 45.039062 1.59375 Z M 2.957031 1.59375 C 3.171875 1.59375 3.382812 1.675781 3.546875 1.835938 L 45.625 43.917969 C 45.953125 44.242188 45.953125 44.769531 45.625 45.09375 C 45.300781 45.421875 44.773438 45.421875 44.449219 45.09375 L 2.367188 3.015625 C 2.042969 2.6875 2.042969 2.160156 2.367188 1.835938 C 2.53125 1.675781 2.746094 1.59375 2.957031 1.59375 " fill-opacity="1" fill-rule="nonzero"/></g></svg>